<svg width="48" height="50" viewBox="0 0 48 50" fill="none" xmlns="http://www.w3.org/2000/svg">
<g clip-path="url(#clip0_12_189)">
<mask id="mask0_12_189" style="mask-type:luminance" maskUnits="userSpaceOnUse" x="13" y="9" width="22" height="33">
<path d="M34.1333 9.44446H13.8667V41.1111H34.1333V9.44446Z" fill="white"/>
</mask>
<g mask="url(#mask0_12_189)">
<path d="M24 25.2778C24 23.878 24.5338 22.5356 25.484 21.5458C26.4342 20.5561 27.7229 20 29.0667 20C30.4105 20 31.6991 20.5561 32.6493 21.5458C33.5995 22.5356 34.1333 23.878 34.1333 25.2778C34.1333 26.6776 33.5995 28.0199 32.6493 29.0097C31.6991 29.9995 30.4105 30.5556 29.0667 30.5556C27.7229 30.5556 26.4342 29.9995 25.484 29.0097C24.5338 28.0199 24 26.6776 24 25.2778Z" fill="#1ABCFE"/>
<path d="M13.8667 35.8334C13.8667 34.4336 14.4005 33.0912 15.3507 32.1014C16.3009 31.1116 17.5895 30.5556 18.9333 30.5556H24V35.8334C24 37.2331 23.4662 38.5755 22.516 39.5653C21.5658 40.5551 20.2771 41.1111 18.9333 41.1111C17.5895 41.1111 16.3009 40.5551 15.3507 39.5653C14.4005 38.5755 13.8667 37.2331 13.8667 35.8334Z" fill="#0ACF83"/>
<path d="M24 9.44446V20H29.0667C30.4105 20 31.6991 19.444 32.6493 18.4542C33.5995 17.4644 34.1333 16.122 34.1333 14.7222C34.1333 13.3225 33.5995 11.9801 32.6493 10.9903C31.6991 10.0005 30.4105 9.44446 29.0667 9.44446H24Z" fill="#FF7262"/>
<path d="M13.8667 14.7222C13.8667 16.122 14.4005 17.4644 15.3507 18.4542C16.3009 19.444 17.5895 20 18.9333 20H24V9.44446H18.9333C17.5895 9.44446 16.3009 10.0005 15.3507 10.9903C14.4005 11.9801 13.8667 13.3225 13.8667 14.7222Z" fill="#F24E1E"/>
<path d="M13.8667 25.2778C13.8667 26.6776 14.4005 28.0199 15.3507 29.0097C16.3009 29.9995 17.5895 30.5556 18.9333 30.5556H24V20H18.9333C17.5895 20 16.3009 20.5561 15.3507 21.5458C14.4005 22.5356 13.8667 23.878 13.8667 25.2778Z" fill="#A259FF"/>
</g>
</g>
<defs>
<clipPath id="clip0_12_189">
<rect width="48" height="50" fill="white"/>
</clipPath>
</defs>
</svg>
