<svg width="62" height="60" viewBox="0 0 62 60" fill="none" xmlns="http://www.w3.org/2000/svg">
<path d="M22.8252 33.6C22.8252 35.1778 21.4933 36.4667 19.863 36.4667C18.2326 36.4667 16.9007 35.1778 16.9007 33.6C16.9007 32.0222 18.2326 30.7333 19.863 30.7333H22.8252V33.6Z" fill="#E01E5A"/>
<path d="M24.3178 33.6C24.3178 32.0222 25.6496 30.7333 27.28 30.7333C28.9104 30.7333 30.2422 32.0222 30.2422 33.6V40.7778C30.2422 42.3556 28.9104 43.6444 27.28 43.6444C25.6496 43.6444 24.3178 42.3556 24.3178 40.7778V33.6Z" fill="#E01E5A"/>
<path d="M27.28 22.0889C25.6496 22.0889 24.3178 20.8 24.3178 19.2222C24.3178 17.6444 25.6496 16.3556 27.28 16.3556C28.9104 16.3556 30.2422 17.6444 30.2422 19.2222V22.0889H27.28Z" fill="#36C5F0"/>
<path d="M27.28 23.5333C28.9104 23.5333 30.2422 24.8222 30.2422 26.4C30.2422 27.9778 28.9104 29.2667 27.28 29.2667H19.863C18.2326 29.2667 16.9007 27.9778 16.9007 26.4C16.9007 24.8222 18.2326 23.5333 19.863 23.5333H27.28Z" fill="#36C5F0"/>
<path d="M39.1748 26.4C39.1748 24.8222 40.5067 23.5333 42.137 23.5333C43.7674 23.5333 45.0993 24.8222 45.0993 26.4C45.0993 27.9778 43.7674 29.2667 42.137 29.2667H39.1748V26.4Z" fill="#2EB67D"/>
<path d="M37.6822 26.4C37.6822 27.9778 36.3504 29.2667 34.72 29.2667C33.0896 29.2667 31.7578 27.9778 31.7578 26.4V19.2222C31.7578 17.6444 33.0896 16.3556 34.72 16.3556C36.3504 16.3556 37.6822 17.6444 37.6822 19.2222V26.4Z" fill="#2EB67D"/>
<path d="M34.72 37.9111C36.3504 37.9111 37.6822 39.2 37.6822 40.7778C37.6822 42.3555 36.3504 43.6444 34.72 43.6444C33.0896 43.6444 31.7578 42.3555 31.7578 40.7778V37.9111H34.72Z" fill="#ECB22E"/>
<path d="M34.72 36.4667C33.0896 36.4667 31.7578 35.1778 31.7578 33.6C31.7578 32.0222 33.0896 30.7333 34.72 30.7333H42.137C43.7674 30.7333 45.0993 32.0222 45.0993 33.6C45.0993 35.1778 43.7674 36.4667 42.137 36.4667H34.72Z" fill="#ECB22E"/>
</svg>
