<svg width="35" height="33" viewBox="0 0 35 33" fill="none" xmlns="http://www.w3.org/2000/svg">
<path d="M32.8125 16.5C32.8122 19.8402 31.5837 23.0769 29.3361 25.6588C27.0885 28.2406 23.9609 30.0078 20.4863 30.6592C17.0117 31.3106 13.4051 30.806 10.2809 29.2313C7.15667 27.6565 4.70824 25.1091 3.35274 22.0231C1.99724 18.9371 1.81855 15.5034 2.84712 12.3072C3.87568 9.11086 6.04787 6.34971 8.99355 4.49416C11.9392 2.63861 15.4762 1.80348 19.0017 2.13105C22.5272 2.45862 25.8232 3.92864 28.3281 6.29062C29.7521 7.62988 30.8814 9.22128 31.6509 10.9733C32.4205 12.7254 32.8153 14.6036 32.8125 16.5Z" fill="white"/>
<path d="M30.5156 16.5C30.5154 19.3392 29.4711 22.0904 27.5606 24.285C25.6502 26.4795 22.9918 27.9817 20.0384 28.5354C17.085 29.0891 14.0193 28.6601 11.3637 27.3216C8.70817 25.9831 6.627 23.8178 5.47483 21.1947C4.32265 18.5716 4.17077 15.6529 5.04505 12.9361C5.91933 10.2192 7.76569 7.87227 10.2695 6.29505C12.7734 4.71784 15.7797 4.00797 18.7765 4.28641C21.7732 4.56485 24.5748 5.81436 26.7039 7.82204C27.9143 8.96043 28.8741 10.3131 29.5283 11.8024C30.1824 13.2916 30.518 14.8881 30.5156 16.5Z" fill="#6D9A00"/>
<path d="M12.7531 16.4825C12.7472 16.3487 12.7709 16.2153 12.8225 16.0906C12.8741 15.9659 12.9527 15.8527 13.0531 15.7581C13.1535 15.6635 13.2737 15.5895 13.406 15.541C13.5383 15.4924 13.6799 15.4703 13.8217 15.476C14.0328 15.4762 14.2391 15.5354 14.4145 15.6461C14.5899 15.7568 14.7265 15.9141 14.8072 16.098C14.8878 16.2819 14.9088 16.4843 14.8675 16.6795C14.8262 16.8746 14.7244 17.0539 14.5751 17.1945C14.4257 17.3352 14.2355 17.431 14.0285 17.4697C13.8214 17.5085 13.6069 17.4885 13.4119 17.4123C13.2169 17.336 13.0502 17.207 12.933 17.0415C12.8157 16.876 12.7531 16.6815 12.7531 16.4825Z" fill="white"/>
<path d="M16.4402 16.4825C16.4343 16.3487 16.4579 16.2153 16.5095 16.0906C16.5612 15.9659 16.6397 15.8527 16.7401 15.7581C16.8406 15.6635 16.9608 15.5895 17.0931 15.541C17.2254 15.4924 17.3669 15.4703 17.5088 15.476C17.7198 15.4762 17.9261 15.5354 18.1015 15.6461C18.2769 15.7568 18.4136 15.9141 18.4942 16.098C18.5748 16.2819 18.5958 16.4843 18.5545 16.6795C18.5132 16.8746 18.4114 17.0539 18.2621 17.1945C18.1128 17.3352 17.9226 17.431 17.7155 17.4697C17.5085 17.5085 17.2939 17.4885 17.0989 17.4123C16.9039 17.336 16.7372 17.207 16.62 17.0415C16.5027 16.876 16.4402 16.6815 16.4402 16.4825Z" fill="white"/>
<path d="M20.125 16.4825C20.1191 16.3487 20.1427 16.2153 20.1944 16.0906C20.246 15.9659 20.3245 15.8527 20.425 15.7581C20.5254 15.6635 20.6456 15.5895 20.7779 15.541C20.9102 15.4924 21.0517 15.4703 21.1936 15.476C21.4047 15.4762 21.611 15.5354 21.7864 15.6461C21.9618 15.7568 22.0984 15.9141 22.179 16.098C22.2597 16.2819 22.2807 16.4843 22.2394 16.6795C22.198 16.8746 22.0963 17.0539 21.9469 17.1945C21.7976 17.3352 21.6074 17.431 21.4004 17.4697C21.1933 17.5085 20.9787 17.4885 20.7837 17.4123C20.5887 17.336 20.4221 17.207 20.3048 17.0415C20.1876 16.876 20.125 16.6815 20.125 16.4825Z" fill="white"/>
<path d="M8.33328 17.4178V15.6152C8.66068 15.6148 8.98594 15.5654 9.29688 15.4688C9.49906 15.3627 9.66547 15.2051 9.77703 15.014C9.92428 14.7669 10.0187 14.495 10.0548 14.2137C10.1046 13.7975 10.1247 13.3785 10.115 12.9597C10.0924 12.2801 10.1374 11.5999 10.2495 10.9282C10.3181 10.5822 10.4869 10.261 10.7373 10C10.9678 9.73328 11.2757 9.5355 11.6233 9.43078C12.0941 9.32319 12.5785 9.27773 13.0627 9.29569H13.4597V10.7776C13.1005 10.7565 12.74 10.7882 12.3911 10.8714C12.2434 10.926 12.1202 11.0269 12.0422 11.1571C11.9575 11.4741 11.9207 11.8008 11.9328 12.1275C11.9328 12.4431 11.9102 13.0415 11.865 13.9229C11.8549 14.3309 11.7895 14.7361 11.6703 15.1284C11.5835 15.4022 11.4477 15.6599 11.2689 15.8905C11.0558 16.132 10.8041 16.3407 10.523 16.5093C10.8008 16.6652 11.0462 16.8675 11.247 17.1064C11.4446 17.3533 11.5908 17.6332 11.678 17.9314C11.7938 18.3588 11.8591 18.797 11.8727 19.238C11.9077 20.0692 11.9252 20.5999 11.9252 20.8302C11.9121 21.1545 11.9527 21.4788 12.0455 21.7913C12.1295 21.925 12.2573 22.0292 12.4097 22.0883C12.7523 22.1776 13.1082 22.2125 13.463 22.1915V23.7239H13.0659C12.5864 23.7344 12.1084 23.6675 11.6528 23.5259C11.3051 23.4275 10.9906 23.2451 10.7406 22.9969C10.4876 22.7363 10.3151 22.4153 10.2419 22.0688C10.1396 21.4945 10.0968 20.9122 10.1139 20.3301C10.1399 19.7293 10.0996 19.1276 9.9936 18.5347C9.92677 18.2059 9.75235 17.9051 9.49484 17.6746C9.13829 17.4943 8.73767 17.4057 8.33328 17.4178Z" fill="white"/>
<path d="M25.468 17.6787C25.2105 17.9092 25.036 18.21 24.9692 18.5388C24.8632 19.1317 24.8229 19.7334 24.8489 20.3342C24.865 20.915 24.8214 21.4959 24.7187 22.0688C24.6456 22.4153 24.4731 22.7363 24.22 22.9969C23.9713 23.248 23.6572 23.4333 23.3089 23.5342C22.8533 23.6757 22.3754 23.7427 21.8958 23.7322H21.4987V22.2028C21.8535 22.2238 22.2094 22.189 22.552 22.0997C22.7044 22.0406 22.8322 21.9363 22.9162 21.8027C23.009 21.4901 23.0496 21.1659 23.0366 20.8416C23.0366 20.6113 23.0541 20.0805 23.0891 19.2493C23.1035 18.8086 23.1695 18.3708 23.2859 17.9438C23.3731 17.6456 23.5193 17.3657 23.7169 17.1188C23.9177 16.8799 24.1631 16.6776 24.4409 16.5217C24.1598 16.3531 23.9081 16.1444 23.695 15.9029C23.5162 15.6723 23.3804 15.4145 23.2936 15.1408C23.1744 14.7485 23.109 14.3433 23.0989 13.9353C23.0537 13.0539 23.0311 12.4555 23.0311 12.1399C23.0432 11.8132 23.0064 11.4865 22.9217 11.1695C22.8438 11.0392 22.7205 10.9383 22.5728 10.8838C22.2239 10.8006 21.8634 10.7689 21.5042 10.79V9.29776H21.9012C22.3854 9.2798 22.8698 9.32527 23.3406 9.43286C23.6882 9.53757 23.9961 9.73536 24.2266 10.0021C24.477 10.2631 24.6458 10.5843 24.7144 10.9302C24.8265 11.602 24.8715 12.2821 24.8489 12.9618C24.8392 13.3806 24.8593 13.7995 24.9091 14.2158C24.9452 14.4971 25.0396 14.769 25.1869 15.016C25.2984 15.2072 25.4648 15.3648 25.667 15.4708C25.9785 15.5684 26.3046 15.6185 26.6328 15.6193V17.4178C26.2269 17.4065 25.8251 17.4965 25.468 17.6787Z" fill="white"/>
</svg>
