<svg width="35" height="33" viewBox="0 0 35 33" fill="none" xmlns="http://www.w3.org/2000/svg">
<g clip-path="url(#clip0_12_159)">
<path fill-rule="evenodd" clip-rule="evenodd" d="M30.6359 -0.00512695H4.38608C3.22576 -0.00512655 2.11297 0.429468 1.2925 1.20305C0.88559 1.58671 0.56295 2.0423 0.343066 2.54371C0.123182 3.04512 0.0103747 3.5825 0.0111043 4.12508V28.8749C0.0111043 29.9689 0.472038 31.0181 1.2925 31.7917C2.11297 32.5653 3.22576 32.9999 4.38608 32.9999H30.6359C31.7924 32.9944 32.8995 32.5573 33.7151 31.7843C34.5308 31.0114 34.9887 29.9653 34.9887 28.8749V4.13032C34.9887 3.03992 34.5308 1.99388 33.7151 1.2209C32.8995 0.447914 31.7924 0.0108775 30.6359 0.00534251V-0.00512695ZM15.2347 24.996C15.2288 25.5171 15.0051 26.0151 14.6122 26.3816C14.2193 26.7482 13.6888 26.9538 13.136 26.9538H6.6735C6.11881 26.9566 5.5855 26.7522 5.19016 26.3853C4.79482 26.0185 4.5696 25.519 4.56374 24.996V6.27656C4.563 6.01538 4.61711 5.75666 4.72294 5.51529C4.82878 5.27393 4.98424 5.05471 5.18037 4.87028C5.3765 4.68584 5.60941 4.53984 5.86568 4.44069C6.12195 4.34154 6.3965 4.29121 6.6735 4.29259H13.136C13.6926 4.29259 14.2264 4.50107 14.62 4.87215C15.0136 5.24323 15.2347 5.74653 15.2347 6.27132V24.996ZM30.4638 16.746C30.4638 17.2708 30.2427 17.7741 29.8491 18.1452C29.4555 18.5163 28.9217 18.7248 28.3651 18.7248H21.886C21.3294 18.7248 20.7956 18.5163 20.402 18.1452C20.0084 17.7741 19.7873 17.2708 19.7873 16.746V6.27656C19.7866 6.01627 19.8403 5.7584 19.9455 5.51772C20.0506 5.27705 20.2051 5.0583 20.4 4.874C20.595 4.6897 20.8266 4.54348 21.0816 4.44371C21.3365 4.34395 21.6099 4.29259 21.886 4.29259H28.3651C28.9217 4.29259 29.4555 4.50107 29.8491 4.87215C30.2427 5.24323 30.4638 5.74653 30.4638 6.27132V16.746Z" fill="url(#paint0_linear_12_159)"/>
</g>
<defs>
<linearGradient id="paint0_linear_12_159" x1="17.511" y1="33.0051" x2="17.511" y2="0.000105939" gradientUnits="userSpaceOnUse">
<stop offset="0.18" stop-color="#0052CC"/>
<stop offset="1" stop-color="#2684FF"/>
</linearGradient>
<clipPath id="clip0_12_159">
<rect width="35" height="33" fill="white"/>
</clipPath>
</defs>
</svg>
