<?xml version="1.0" standalone="no"?>
<!DOCTYPE svg PUBLIC "-//W3C//DTD SVG 20010904//EN"
 "http://www.w3.org/TR/2001/REC-SVG-20010904/DTD/svg10.dtd">
<svg version="1.0" xmlns="http://www.w3.org/2000/svg"
 width="500.000000pt" height="500.000000pt" viewBox="0 0 500.000000 500.000000"
 preserveAspectRatio="xMidYMid meet">

<g transform="translate(0.000000,500.000000) scale(0.100000,-0.100000)"
fill="#000000" stroke="none">
<path d="M0 2500 l0 -2500 2500 0 2500 0 0 2500 0 2500 -2500 0 -2500 0 0
-2500z m2322 497 c142 -70 228 -198 236 -352 7 -134 -31 -235 -125 -328 -234
-234 -637 -114 -709 211 -46 208 70 416 276 492 44 16 74 20 151 17 88 -2 103
-6 171 -40z m-1284 22 c-10 -5 -18 -18 -18 -28 0 -10 113 -168 250 -351 l250
-333 1 349 c1 192 3 342 6 332 4 -14 7 -14 26 5 l22 22 -75 6 c-73 5 -72 5 30
6 58 1 98 -1 90 -4 -91 -30 -90 -23 -90 -448 0 -361 0 -365 -20 -365 -15 0
-87 89 -278 345 l-257 345 -5 -333 c-3 -182 -6 -326 -8 -318 -1 11 -10 7 -31
-13 -16 -16 -35 -26 -43 -23 -9 4 -8 6 4 6 9 1 28 15 42 32 l26 31 0 342 c0
330 1 344 20 369 l21 26 -78 4 c-70 3 -67 3 27 5 75 1 100 -1 88 -9z m1805 1
c-40 -16 -43 -38 -43 -303 0 -281 7 -324 60 -389 121 -147 368 -99 425 82 7
25 14 36 14 25 1 -32 -43 -117 -80 -153 -86 -86 -220 -112 -323 -62 -63 30
-122 89 -150 149 -19 42 -21 65 -24 286 -4 265 1 299 48 339 l30 25 -72 4
c-58 2 -52 3 32 4 69 1 98 -1 83 -7z m532 -4 c-59 -26 -60 -27 -65 -300 l-6
-251 -2 270 c-1 149 2 264 6 257 7 -9 13 -8 26 7 18 20 17 20 -60 24 -71 3
-69 3 26 5 94 1 102 0 75 -12z m570 -5 c44 -20 100 -78 116 -120 15 -39 14
-121 -3 -161 -28 -66 -94 -115 -170 -128 -77 -13 -73 -27 45 -161 116 -132
126 -154 86 -205 -25 -32 -56 -37 -39 -6 9 16 -4 35 -95 137 -91 103 -104 123
-105 154 0 24 7 42 20 54 16 14 17 20 8 27 -8 5 -2 8 18 8 43 0 94 38 123 90
52 94 23 243 -59 298 -29 19 -46 22 -131 22 -75 0 -101 -4 -113 -16 -14 -13
-16 -52 -16 -267 l0 -252 25 37 c14 21 35 42 48 48 19 10 18 8 -4 -12 -47 -40
-69 -88 -69 -148 -1 -87 -15 -130 -57 -172 -34 -33 -83 -51 -83 -30 0 4 10 12
23 17 l22 10 5 345 c4 304 7 349 23 377 9 18 27 38 40 45 20 12 15 14 -48 19
-41 3 17 6 140 7 184 1 215 -1 250 -17z m-168 -417 c-3 -3 -12 -4 -19 -1 -8 3
-5 6 6 6 11 1 17 -2 13 -5z m-2060 -691 c-15 -4 -18 -12 -15 -44 2 -21 0 -39
-4 -39 -5 0 -8 18 -8 41 0 32 -3 40 -15 35 -8 -3 -15 -1 -15 4 0 6 17 9 38 9
20 -1 29 -3 19 -6z m197 -45 c8 -21 11 -38 5 -38 -5 0 -9 7 -9 15 0 21 -37 19
-49 -2 -6 -10 -10 -13 -10 -8 0 15 28 62 29 48 0 -7 5 -13 10 -13 7 0 7 6 0
19 -5 11 -10 23 -10 27 0 15 18 -11 34 -48z m185 43 c8 -5 11 -16 6 -30 -4
-13 -1 -28 5 -36 7 -8 8 -15 4 -15 -5 0 -15 10 -23 21 -10 17 -10 23 -1 29 7
4 9 13 6 19 -14 23 -26 10 -26 -29 0 -22 -3 -40 -7 -40 -5 0 -8 20 -8 45 0 46
12 56 44 36z m182 -23 l28 -33 1 33 c0 17 3 32 8 32 4 0 5 -21 3 -47 l-3 -48
-29 35 -29 34 0 -32 c0 -18 -3 -32 -7 -32 -5 0 -8 20 -8 45 0 25 2 45 4 45 3
0 17 -15 32 -32z m233 -20 c8 -21 11 -38 5 -38 -5 0 -9 7 -9 15 0 21 -37 19
-49 -2 -6 -10 -10 -13 -10 -8 0 15 28 62 29 48 0 -7 5 -13 10 -13 7 0 7 6 0
19 -5 11 -10 23 -10 27 0 15 18 -11 34 -48z m209 44 c3 -4 -9 -7 -26 -7 -26 0
-33 -4 -35 -24 -3 -16 3 -30 15 -39 17 -14 17 -14 0 -8 -10 3 -21 6 -23 6 -10
0 -3 57 8 68 13 13 54 16 61 4z m190 -39 c9 -24 12 -43 7 -43 -6 0 -10 7 -10
15 0 8 -9 15 -20 15 -11 0 -20 -7 -20 -15 0 -8 -4 -15 -9 -15 -8 0 9 55 26 83
6 11 7 10 26 -40z m209 30 c10 -9 18 -22 18 -29 0 -16 -27 -44 -43 -44 -6 0
-3 6 7 13 26 19 18 61 -13 65 -22 3 -23 1 -19 -37 2 -24 -1 -41 -7 -41 -5 0
-10 20 -10 45 0 41 2 45 24 45 14 0 33 -7 43 -17z m199 -33 c10 -22 14 -40 10
-40 -5 0 -11 7 -15 15 -3 8 -16 15 -28 16 l-23 1 22 6 c17 5 20 11 13 22 -8
12 -10 12 -10 1 0 -8 -2 -12 -5 -9 -3 3 -3 13 1 22 8 21 12 17 35 -34z m-591
-20 c0 -11 -4 -20 -8 -20 -4 0 -8 9 -8 20 0 11 4 20 8 20 4 0 8 -9 8 -20z
m540 -10 c0 -5 -5 -10 -11 -10 -5 0 -7 5 -4 10 3 6 8 10 11 10 2 0 4 -4 4 -10z"/>
<path d="M1947 2976 c-229 -85 -247 -376 -37 -586 161 -162 378 -193 510 -74
68 62 85 104 85 214 0 89 -2 100 -37 173 -51 107 -138 194 -244 244 -65 31
-90 37 -158 40 -53 2 -94 -2 -119 -11z"/>
<path d="M2880 1870 c0 -5 5 -10 10 -10 6 0 10 5 10 10 0 6 -4 10 -10 10 -5 0
-10 -4 -10 -10z"/>
</g>
</svg>
