<?xml version="1.0" standalone="no"?>
<!DOCTYPE svg PUBLIC "-//W3C//DTD SVG 20010904//EN"
 "http://www.w3.org/TR/2001/REC-SVG-20010904/DTD/svg10.dtd">
<svg version="1.0" xmlns="http://www.w3.org/2000/svg"
 width="500.000000pt" height="500.000000pt" viewBox="0 0 500.000000 500.000000"
 preserveAspectRatio="xMidYMid meet">

<g transform="translate(0.000000,500.000000) scale(0.100000,-0.100000)"
fill="#000000" stroke="none">
<path d="M2008 3021 c-60 -19 -118 -51 -138 -76 -7 -8 9 -3 35 12 101 56 255
39 379 -41 202 -132 287 -393 180 -552 l-26 -39 24 23 c31 28 73 111 89 176 7
28 10 79 6 127 -10 152 -95 277 -235 346 -67 33 -84 37 -166 40 -68 2 -105 -2
-148 -16z"/>
<path d="M924 3023 l78 -4 -18 -20 c-18 -20 -19 -48 -24 -376 l-5 -355 -33
-29 c-18 -16 -29 -29 -25 -29 4 0 20 12 35 27 20 19 29 23 30 12 2 -8 5 136 8
319 l5 333 257 -345 c189 -254 263 -346 278 -346 20 0 20 6 20 366 0 246 4
372 11 386 8 15 8 19 0 14 -6 -4 -12 1 -13 11 -2 10 -5 -138 -8 -329 l-5 -346
-240 320 c-132 176 -244 332 -250 345 -8 20 -6 28 10 39 16 12 6 14 -86 12
-97 -2 -99 -2 -25 -5z"/>
<path d="M1431 3025 c7 -7 189 -8 196 -1 4 3 -40 6 -97 6 -57 0 -101 -2 -99
-5z"/>
<path d="M2728 3023 l72 -4 -30 -25 c-47 -40 -52 -74 -48 -339 3 -230 4 -242
27 -289 111 -226 420 -227 527 -1 13 28 24 57 23 65 0 8 -9 -7 -19 -34 -84
-216 -399 -203 -465 18 -18 61 -22 545 -4 577 6 11 20 24 32 29 15 6 -14 8
-83 7 -84 -1 -90 -2 -32 -4z"/>
<path d="M3278 3021 l74 -6 -26 -24 c-16 -15 -26 -35 -25 -50 l1 -26 8 28 c11
38 29 57 65 73 27 12 20 13 -70 12 -100 -2 -100 -2 -27 -7z"/>
<path d="M3555 3021 c63 -5 68 -7 48 -19 -46 -26 -48 -38 -53 -405 l-5 -349
-24 -19 c-34 -27 1 -26 40 2 42 29 55 63 63 154 5 64 12 89 36 128 16 26 27
47 24 47 -2 0 -18 -21 -34 -47 l-30 -47 0 241 c0 235 6 288 33 305 7 4 55 8
108 8 113 0 148 -17 189 -90 35 -64 35 -167 0 -230 -28 -49 -80 -90 -117 -90
-13 0 -22 -4 -19 -9 3 -4 -3 -16 -14 -26 -13 -11 -20 -31 -20 -52 0 -30 15
-52 105 -154 58 -65 105 -123 105 -127 0 -4 -5 -13 -12 -20 -9 -9 -8 -12 4
-12 24 0 58 48 58 81 0 22 -24 56 -105 146 -57 65 -105 126 -105 135 0 11 10
20 28 23 104 22 164 61 197 131 36 77 14 184 -52 246 -56 53 -83 58 -310 56
-124 -1 -180 -4 -138 -7z"/>
<path d="M1790 2859 c-147 -204 -73 -503 153 -614 90 -44 169 -58 257 -45 77
12 176 58 210 97 l25 28 -25 -22 c-56 -49 -159 -71 -250 -53 -285 54 -492 412
-355 614 34 50 22 45 -15 -5z"/>
<path d="M1673 1903 c12 -3 17 -15 17 -44 0 -21 3 -39 8 -39 4 0 6 18 4 39 -3
32 0 40 15 44 10 3 0 5 -22 5 -22 0 -32 -2 -22 -5z"/>
<path d="M2055 1865 c0 -25 3 -45 8 -45 4 0 7 20 7 45 0 25 -3 45 -7 45 -5 0
-8 -20 -8 -45z"/>
<path d="M2080 1906 c0 -2 8 -10 18 -17 15 -13 16 -12 3 4 -13 16 -21 21 -21
13z"/>
<path d="M2245 1865 c0 -25 3 -45 8 -45 4 0 7 15 7 33 l1 32 28 -34 29 -35 3
47 c2 26 1 47 -3 47 -5 0 -8 -15 -8 -32 l-1 -33 -28 33 c-15 17 -29 32 -32 32
-2 0 -4 -20 -4 -45z"/>
<path d="M2662 1898 c-24 -24 -8 -79 23 -78 5 0 2 5 -7 11 -10 5 -18 21 -18
34 0 13 8 29 18 34 9 6 12 11 7 11 -6 0 -16 -5 -23 -12z"/>
<path d="M2700 1906 c0 -2 7 -7 16 -10 8 -3 12 -2 9 4 -6 10 -25 14 -25 6z"/>
<path d="M2886 1901 c-4 -5 -2 -12 4 -16 15 -9 12 -28 -4 -22 -8 3 -17 0 -19
-7 -4 -9 2 -11 19 -8 17 3 24 0 24 -12 0 -9 4 -16 10 -16 5 0 2 19 -7 43 -20
51 -20 51 -27 38z"/>
<path d="M3055 1865 c0 -25 5 -45 10 -45 6 0 9 17 7 41 -4 38 -3 40 19 37 28
-4 38 -40 18 -64 -10 -12 -9 -13 4 -9 41 16 16 85 -31 85 -25 0 -27 -3 -27
-45z"/>
<path d="M3291 1907 c-1 -5 4 -17 9 -28 9 -16 7 -19 -12 -20 -20 -1 -21 -2 -3
-6 11 -3 26 -12 32 -21 22 -27 20 -9 -3 38 -13 25 -23 41 -23 37z"/>
<path d="M1890 1880 c9 -17 8 -20 -10 -20 -11 0 -20 -4 -20 -9 0 -4 11 -6 25
-3 18 3 25 0 25 -12 0 -9 4 -16 9 -16 5 0 2 18 -6 40 -9 22 -20 40 -25 40 -5
0 -4 -9 2 -20z"/>
<path d="M2490 1880 c9 -17 8 -20 -10 -20 -11 0 -20 -4 -20 -9 0 -4 11 -6 25
-3 18 3 25 0 25 -12 0 -9 4 -16 9 -16 5 0 2 18 -6 40 -9 22 -20 40 -25 40 -5
0 -4 -9 2 -20z"/>
<path d="M2087 1863 c-5 -8 20 -50 26 -42 2 2 -2 15 -9 27 -6 13 -14 20 -17
15z"/>
<path d="M2714 1841 c0 -11 4 -17 8 -15 4 3 8 12 8 20 0 8 -4 14 -8 14 -4 0
-8 -9 -8 -19z"/>
</g>
</svg>
